<svg xmlns="http://www.w3.org/2000/svg" viewBox="0 0 500 500"><g id="freepik--background-complete--inject-2"><rect y="382.4" width="500" height="0.25" style="fill:#ebebeb"></rect><rect x="416.78" y="398.49" width="18.89" height="0.25" style="fill:#ebebeb"></rect><rect x="293.05" y="396.75" width="29.47" height="0.25" style="fill:#ebebeb"></rect><rect x="368.67" y="389.21" width="47.11" height="0.25" style="fill:#ebebeb"></rect><rect x="52.46" y="390.89" width="10.97" height="0.25" style="fill:#ebebeb"></rect><rect x="72.33" y="390.89" width="38.56" height="0.25" style="fill:#ebebeb"></rect><rect x="171" y="395.11" width="54.15" height="0.25" style="fill:#ebebeb"></rect><path d="M237,337.8H43.91a5.71,5.71,0,0,1-5.7-5.71V60.66A5.71,5.71,0,0,1,43.91,55H237a5.71,5.71,0,0,1,5.71,5.71V332.09A5.71,5.71,0,0,1,237,337.8ZM43.91,55.2a5.46,5.46,0,0,0-5.45,5.46V332.09a5.46,5.46,0,0,0,5.45,5.46H237a5.47,5.47,0,0,0,5.46-5.46V60.66A5.47,5.47,0,0,0,237,55.2Z" style="fill:#ebebeb"></path><path d="M453.31,337.8H260.21a5.72,5.72,0,0,1-5.71-5.71V60.66A5.72,5.72,0,0,1,260.21,55h193.1A5.71,5.71,0,0,1,459,60.66V332.09A5.71,5.71,0,0,1,453.31,337.8ZM260.21,55.2a5.47,5.47,0,0,0-5.46,5.46V332.09a5.47,5.47,0,0,0,5.46,5.46h193.1a5.47,5.47,0,0,0,5.46-5.46V60.66a5.47,5.47,0,0,0-5.46-5.46Z" style="fill:#ebebeb"></path><rect x="416.78" y="398.49" width="18.89" height="0.25" style="fill:#ebebeb"></rect><rect x="293.05" y="396.75" width="29.47" height="0.25" style="fill:#ebebeb"></rect><rect x="368.67" y="389.21" width="47.11" height="0.25" style="fill:#ebebeb"></rect><rect x="52.46" y="390.89" width="10.97" height="0.25" style="fill:#ebebeb"></rect><rect x="72.33" y="390.89" width="38.56" height="0.25" style="fill:#ebebeb"></rect><rect x="171" y="395.11" width="54.15" height="0.25" style="fill:#ebebeb"></rect><circle cx="175.78" cy="355.35" r="27.04" transform="translate(-219.79 381.76) rotate(-67.5)" style="fill:#e0e0e0"></circle><circle cx="349.85" cy="355.35" r="27.04" transform="translate(-148.81 351.46) rotate(-45)" style="fill:#e0e0e0"></circle><polygon points="84.29 236.64 56.11 294.13 56.11 348.14 165.18 348.14 165.18 236.64 84.29 236.64" style="fill:#f5f5f5"></polygon><polygon points="88.83 246.93 70.71 283.9 70.71 296.27 115.36 296.27 115.36 246.93 88.83 246.93" style="fill:#ebebeb"></polygon><rect x="129.6" y="236.64" width="18.99" height="111.5" style="fill:#e0e0e0"></rect><rect x="137.3" y="217.91" width="259.31" height="130.23" transform="translate(533.91 566.05) rotate(180)" style="fill:#ebebeb"></rect><rect x="56.11" y="348.14" width="340.5" height="9.04" transform="translate(452.72 705.32) rotate(180)" style="fill:#e6e6e6"></rect><circle cx="88.11" cy="355.35" r="27.04" transform="translate(-273.91 300.77) rotate(-67.5)" style="fill:#e6e6e6"></circle><path d="M88.11,342a13.41,13.41,0,1,1-13.4,13.4A13.42,13.42,0,0,1,88.11,342m0-4a17.41,17.41,0,1,0,17.41,17.4A17.4,17.4,0,0,0,88.11,338Z" style="fill:#f5f5f5"></path><circle cx="262.18" cy="355.35" r="27.04" transform="translate(-174.48 289.47) rotate(-45)" style="fill:#e6e6e6"></circle><path d="M262.18,342a13.41,13.41,0,1,1-13.4,13.4,13.42,13.42,0,0,1,13.4-13.4m0-4a17.41,17.41,0,1,0,17.41,17.4A17.4,17.4,0,0,0,262.18,338Z" style="fill:#f5f5f5"></path><rect x="303.89" y="226.62" width="88.58" height="117.97" style="fill:#e0e0e0"></rect><rect x="322.81" y="309.31" width="25.37" height="35.28" style="fill:#fafafa"></rect><rect x="332.24" y="309.31" width="6.51" height="12.08" style="fill:#f5f5f5"></rect><rect x="351.52" y="317.18" width="25.37" height="27.4" style="fill:#fafafa"></rect><rect x="348.18" y="317.18" width="3.34" height="27.4" transform="translate(699.7 661.77) rotate(180)" style="fill:#ebebeb"></rect><rect x="360.95" y="317.18" width="6.51" height="12.08" style="fill:#f5f5f5"></rect><rect x="392.47" y="226.62" width="51.42" height="117.97" transform="translate(836.36 571.2) rotate(180)" style="fill:#f0f0f0"></rect><rect x="303.89" y="226.62" width="18.92" height="117.97" transform="translate(626.69 571.2) rotate(180)" style="fill:#f0f0f0"></rect><circle cx="234.34" cy="277.28" r="40.64" style="fill:#fff"></circle><rect x="227.8" y="254.24" width="13.08" height="46.08" style="fill:#ebebeb"></rect><rect x="227.8" y="254.24" width="13.08" height="46.08" transform="translate(511.61 42.94) rotate(90)" style="fill:#ebebeb"></rect><circle cx="248.27" cy="112.25" r="37.47" transform="translate(97.7 339.33) rotate(-80.78)" style="fill:#fafafa"></circle><circle cx="268.81" cy="126.89" r="41.14" transform="translate(100.5 371.9) rotate(-80.78)" style="fill:#fafafa"></circle><circle cx="216.66" cy="133.24" r="33.17" transform="translate(-30.75 192.22) rotate(-45)" style="fill:#fafafa"></circle><circle cx="180.74" cy="137.82" r="18.45" style="fill:#fafafa"></circle><circle cx="305.17" cy="137.82" r="20.94" transform="translate(-8.07 256.15) rotate(-45)" style="fill:#fafafa"></circle><circle cx="391.52" cy="95.76" r="26.64" style="fill:#f5f5f5"></circle><circle cx="367.6" cy="101.24" r="20.24" style="fill:#f5f5f5"></circle><circle cx="413.43" cy="105.59" r="23.58" style="fill:#f5f5f5"></circle><circle cx="431.53" cy="99.77" r="14.33" transform="translate(-11.38 101.81) rotate(-13.28)" style="fill:#f5f5f5"></circle><circle cx="113.9" cy="99.15" r="23.19" style="fill:#f5f5f5"></circle><circle cx="134.71" cy="94.37" r="17.62" transform="translate(-18.08 33.48) rotate(-13.28)" style="fill:#f5f5f5"></circle><circle cx="94.82" cy="90.59" r="20.52" style="fill:#f5f5f5"></circle><circle cx="79.07" cy="95.65" r="12.47" transform="translate(-44.48 83.93) rotate(-45)" style="fill:#f5f5f5"></circle></g><g id="freepik--Shadow--inject-2"><ellipse id="freepik--path--inject-2" cx="250" cy="416.24" rx="193.89" ry="11.32" style="fill:#f5f5f5"></ellipse></g><g id="freepik--Supplies--inject-2"><rect x="74.11" y="359.84" width="66.66" height="53.07" style="fill:#FF4040"></rect><rect x="74.11" y="359.84" width="66.66" height="53.07" style="fill:#fff;opacity:0.7000000000000001"></rect><rect x="117.18" y="359.84" width="23.59" height="53.07" style="fill:#FF4040;opacity:0.4"></rect><path d="M135,386.37c0,5.57-2.3,10.08-5.14,10.08s-5.14-4.51-5.14-10.08,2.3-10.07,5.14-10.07S135,380.81,135,386.37Z" style="fill:#fff"></path><rect x="128.89" y="380.17" width="1.93" height="12.4" style="fill:#FF4040"></rect><rect x="128.22" y="382.7" width="3.27" height="7.34" transform="translate(516.23 256.52) rotate(90)" style="fill:#FF4040"></rect><rect x="91.44" y="392.84" width="8.42" height="20.07" transform="translate(191.29 805.74) rotate(180)" style="fill:#fff;opacity:0.7000000000000001"></rect><rect x="91.44" y="359.84" width="8.42" height="9.41" transform="translate(191.29 729.09) rotate(180)" style="fill:#fff;opacity:0.7000000000000001"></rect><rect x="127.56" y="359.84" width="66.66" height="53.07" style="fill:#FF4040"></rect><rect x="127.56" y="359.84" width="66.66" height="53.07" style="fill:#fff;opacity:0.7000000000000001"></rect><rect x="170.62" y="359.84" width="23.59" height="53.07" style="fill:#FF4040;opacity:0.4"></rect><path d="M188.44,386.37c0,5.57-2.3,10.08-5.14,10.08s-5.14-4.51-5.14-10.08,2.3-10.07,5.14-10.07S188.44,380.81,188.44,386.37Z" style="fill:#fff"></path><rect x="182.33" y="380.17" width="1.93" height="12.4" style="fill:#FF4040"></rect><rect x="181.67" y="382.7" width="3.27" height="7.34" transform="translate(569.67 203.07) rotate(90)" style="fill:#FF4040"></rect><rect x="144.88" y="359.84" width="8.42" height="20.07" style="fill:#fff;opacity:0.7000000000000001"></rect><rect x="144.88" y="403.49" width="8.42" height="9.41" style="fill:#fff;opacity:0.7000000000000001"></rect><rect x="105.57" y="319.26" width="66.66" height="40.58" style="fill:#FF4040"></rect><rect x="105.57" y="319.26" width="66.66" height="40.58" style="fill:#fff;opacity:0.7000000000000001"></rect><rect x="148.64" y="319.26" width="23.59" height="40.58" style="fill:#FF4040;opacity:0.4"></rect><ellipse cx="161.31" cy="339.55" rx="5.14" ry="10.08" style="fill:#fff"></ellipse><rect x="160.35" y="333.35" width="1.93" height="12.4" style="fill:#FF4040"></rect><rect x="159.68" y="335.88" width="3.27" height="7.34" transform="translate(500.86 178.24) rotate(90)" style="fill:#FF4040"></rect><rect x="122.89" y="319.26" width="8.42" height="13.82" style="fill:#fff;opacity:0.7000000000000001"></rect><rect x="122.89" y="350.43" width="8.42" height="9.41" style="fill:#fff;opacity:0.7000000000000001"></rect></g><g id="freepik--character-1--inject-2"><path d="M184.41,156,188,162c1.23,2,2.45,4,3.71,5.93,2.5,3.93,5.09,7.78,7.81,11.42.67.93,1.38,1.79,2.06,2.69.35.45.71.86,1.06,1.29l.53.65.27.32c0,.05,0,0,0,0l-.09-.08-.18-.13c-.48-.31-.67-.28-.62-.23a1.3,1.3,0,0,0,.62.22,12.86,12.86,0,0,0,2.6.12,108.72,108.72,0,0,0,13.35-1.9l2.48,5.91a50.68,50.68,0,0,1-6.74,3.67,41.35,41.35,0,0,1-7.52,2.66,21.37,21.37,0,0,1-4.59.63,13.33,13.33,0,0,1-2.95-.25,9.59,9.59,0,0,1-3.88-1.73,6.28,6.28,0,0,1-.51-.42l-.26-.24-.19-.18-.34-.35-.68-.69c-.45-.47-.92-.93-1.35-1.4-.85-1-1.76-1.88-2.55-2.85a135.45,135.45,0,0,1-9.11-12c-1.39-2-2.75-4.13-4-6.24s-2.53-4.21-3.76-6.51Z" style="fill:#ff8b7b"></path><path d="M216.91,183.84l7.16-6.68,5.33,8.13s-4.82,5.88-10.56,3.21Z" style="fill:#FF4040"></path><path d="M233,175.81l1,4.45a2,2,0,0,1-.7,2l-3.87,3.06-5.33-8.13,6.19-2.72A2,2,0,0,1,233,175.81Z" style="fill:#FF4040"></path><path d="M204.88,406.72a.19.19,0,0,1-.11-.18.19.19,0,0,1,.13-.19c.41-.15,4-1.41,5-.69a.67.67,0,0,1,.26.58h0a1.16,1.16,0,0,1-.51.92c-1,.7-3.42,0-4.75-.43Zm4.71-.78c-.61-.31-2.55.14-4,.6,1.83.56,3.23.67,3.81.28a.69.69,0,0,0,.33-.61.23.23,0,0,0-.1-.23Z" style="fill:#FF4040"></path><path d="M206.53,403.42a1.45,1.45,0,0,1,1.16-.2c.54.13.66.43.66.66,0,1-2.25,2.54-3.33,2.86a.18.18,0,0,1-.14,0l0,0a.22.22,0,0,1-.06-.19C204.79,406.4,205.33,404.15,206.53,403.42Zm1.42.47s0-.13-.16-.2l-.2-.08h-.09a1.1,1.1,0,0,0-.76.16,4.8,4.8,0,0,0-1.48,2.46C206.39,405.73,208,404.48,208,403.89Z" style="fill:#FF4040"></path><polygon points="196.85 407.48 205.37 407.35 204.84 387.53 196.31 387.67 196.85 407.48" style="fill:#ff8b7b"></polygon><path d="M205.47,406.36l-9.31.15a.65.65,0,0,0-.66.59l-.81,7.62a1.39,1.39,0,0,0,1.4,1.5c3.35-.11,8.18-.39,12.4-.45,4.94-.08,4.46.12,10.25,0,3.5-.05,4.06-3.61,2.56-3.91-6.84-1.36-7.53-1.43-13.7-4.9A4.38,4.38,0,0,0,205.47,406.36Z" style="fill:#263238"></path><polygon points="204.84 387.54 205.11 397.75 196.59 397.89 196.31 387.67 204.84 387.54" style="opacity:0.2"></polygon><path d="M185.11,118.3c-.33,6.39.24,18.94-4.41,23,3.19,3.45,8.47,6.2,15.89,6.66s5.73-3.69,3.94-6.42c-6.88-1.85-5.65-8-4.12-12.76Z" style="fill:#ff8b7b"></path><path d="M177.46,140.27c.18-1.79,1.3-5.38,6.12-4.14s10.51.8,14.84,1.05,4.57,5.68,4.57,5.68Z" style="fill:#FF4040"></path><path d="M179.2,139.07c10.27-.11,23.08,1.14,30,3.33a4.6,4.6,0,0,1,3.22,4.14c.41,7.74,1.53,33.22,2.5,72.94l-45.69.74a481.58,481.58,0,0,0-3.59-65.68A13.78,13.78,0,0,1,179.2,139.07Z" style="fill:#263238"></path><rect x="219.6" y="154.91" width="63.95" height="38.93" transform="matrix(0.99, 0.13, -0.13, 0.99, 24.42, -30.8)" style="fill:#FF4040"></rect><rect x="219.6" y="154.91" width="63.95" height="38.93" transform="matrix(0.99, 0.13, -0.13, 0.99, 24.42, -30.8)" style="fill:#fff;opacity:0.7000000000000001"></rect><rect x="240.13" y="156.23" width="43.34" height="38.93" transform="translate(24.67 -32.1) rotate(7.36)" style="fill:#FF4040;opacity:0.4"></rect><ellipse cx="263.4" cy="175.9" rx="9.67" ry="9.44" transform="translate(55.23 414.63) rotate(-82.65)" style="fill:#fff"></ellipse><rect x="261.63" y="169.96" width="3.55" height="11.89" transform="translate(24.71 -32.3) rotate(7.36)" style="fill:#FF4040"></rect><rect x="261.84" y="169.16" width="3.13" height="13.49" transform="translate(471.61 -62.79) rotate(97.36)" style="fill:#FF4040"></rect><rect x="229.51" y="152.19" width="3.68" height="13.26" transform="translate(22.26 -28.34) rotate(7.36)" style="fill:#fff;opacity:0.7000000000000001"></rect><rect x="225.95" y="181.86" width="3.68" height="9.03" transform="translate(25.76 -27.65) rotate(7.36)" style="fill:#fff;opacity:0.7000000000000001"></rect><path d="M215.38,153.61c.22,1,.52,2.22.79,3.34l.86,3.44c.61,2.29,1.23,4.57,1.92,6.82s1.39,4.48,2.2,6.66,1.62,4.32,2.57,6.36c.47,1,.95,2,1.46,3,.25.5.52,1,.78,1.44l.41.69.2.34,0,0,0-.05-.11-.13a2.83,2.83,0,0,0-.24-.25,2.86,2.86,0,0,0-1-.62,1.1,1.1,0,0,0-.47-.11c-.12,0,.08.12.37.15a12.25,12.25,0,0,0,2.59-.19,112.5,112.5,0,0,0,13.41-3.69l3.16,5.58A55.62,55.62,0,0,1,237.9,191a42.93,42.93,0,0,1-7.34,3.65,20.66,20.66,0,0,1-4.7,1.18,12,12,0,0,1-3.32,0,9.53,9.53,0,0,1-2.23-.67,8.54,8.54,0,0,1-2.46-1.69,7.82,7.82,0,0,1-.55-.6l-.25-.32-.14-.2-.31-.43L216,191c-.38-.58-.78-1.16-1.14-1.74-.74-1.17-1.43-2.35-2.06-3.54a93.76,93.76,0,0,1-6.18-14.56c-.82-2.47-1.56-4.94-2.22-7.45-.33-1.24-.64-2.5-.93-3.77s-.53-2.49-.79-3.9Z" style="fill:#ff8b7b"></path><path d="M198.78,147.06c-4.08,7.18,6.86,31.13,6.86,31.13l17-6.47s-.65-12.12-5.12-21.49C212.88,140.62,203.25,139.19,198.78,147.06Z" style="fill:#263238"></path><path d="M252.83,177.24l-3.08.27a15.91,15.91,0,0,0-5.12,1.31l-4.61,2a1.29,1.29,0,0,0-.7,1.59l1.8,5.45a1.29,1.29,0,0,0,1.37.88,24.65,24.65,0,0,0,7.12-1.62l3.92-1.59a1.79,1.79,0,0,0,1-1.62l.19-4.5A2,2,0,0,0,252.83,177.24Z" style="fill:#FF4040"></path><path d="M242.75,181.78c.92-1.07,2-5.53,1.37-6.68s-1.69,1.78-2.35,2.56c-1.83,2.16-3.36,4.35-2.06,5S241.13,183.65,242.75,181.78Z" style="fill:#FF4040"></path><path d="M205.89,113.09c.06.69.47,1.21.92,1.17s.76-.63.71-1.32-.47-1.21-.92-1.16S205.83,112.41,205.89,113.09Z" style="fill:#263238"></path><path d="M205.06,113.05a24.45,24.45,0,0,0,3.76,5.57,4,4,0,0,1-3.22.92Z" style="fill:#ff5652"></path><path d="M203.56,109.57a.66.66,0,0,1-.2-.06.4.4,0,0,1-.12-.56,4,4,0,0,1,3.14-2,.39.39,0,0,1,.41.39.41.41,0,0,1-.4.42h0a3.22,3.22,0,0,0-2.47,1.58A.41.41,0,0,1,203.56,109.57Z" style="fill:#263238"></path><path d="M182.44,112.08c1.21,8.38,1.5,13.35,6.11,17.29,6.94,5.92,17,1.11,18.35-7.49,1.19-7.73-1-20.14-9.52-22.74A11.67,11.67,0,0,0,182.44,112.08Z" style="fill:#ff8b7b"></path><path d="M202.58,116.32a4,4,0,0,0,1-6c-1.36-1.61-3.77-4.39-2.41-5.57s8.36-3.58,5.78-8.41-8-7.79-11.6-4.2-4.7,1.73-10.51,1-8.41,5.19-6.43,7.54-5.19,3.53-2.84,6.62c-4.39,2.28-.13,9.46,3.34,12.55s1.11,8.28,7,10.2S205.24,123,202.58,116.32Z" style="fill:#263238"></path><path d="M202.07,127.54a.55.55,0,0,1-.48-.28c-.19-.31-4.58-7.78-1.53-12,1.05-1.44,2.14-2.12,3.26-2,1.85.14,3.17,2.29,4.12,4.14a.56.56,0,0,1-1,.51c-.44-.85-1.76-3.43-3.22-3.54-.71,0-1.47.47-2.27,1.57-2.62,3.61,1.54,10.69,1.59,10.76a.57.57,0,0,1-.2.77A.6.6,0,0,1,202.07,127.54Z" style="fill:#FF4040"></path><path d="M148.41,403.82a.18.18,0,0,1-.12-.17.2.2,0,0,1,.12-.2c.4-.18,3.92-1.72,4.92-1.08a.64.64,0,0,1,.31.56h0a1.13,1.13,0,0,1-.44,1c-1,.77-3.4.29-4.76-.06Zm4.64-1.15c-.63-.26-2.53.35-3.92.91,1.86.42,3.27.42,3.82,0a.71.71,0,0,0,.28-.64.23.23,0,0,0-.11-.22Z" style="fill:#FF4040"></path><path d="M149.8,400.39a1.56,1.56,0,0,1,1.14-.28c.55.09.7.39.72.61.1,1-2,2.7-3.1,3.11a.22.22,0,0,1-.14,0l-.06,0a.25.25,0,0,1-.07-.2C148.3,403.51,148.66,401.22,149.8,400.39Zm1.46.37s0-.12-.18-.19l-.21-.06h-.17a1.16,1.16,0,0,0-.67.22,4.72,4.72,0,0,0-1.26,2.57C149.85,402.72,151.32,401.35,151.26,400.76Z" style="fill:#FF4040"></path><polygon points="139.82 402.96 148.05 405.11 153.61 386.02 145.38 383.88 139.82 402.96" style="fill:#ff8b7b"></polygon><path d="M148.64,403.46l-9-2.35a.66.66,0,0,0-.79.4L136,408.63a1.39,1.39,0,0,0,1,1.82c3.26.79,4.35.81,8.44,1.88,4.77,1.24,5.6,3.84,11.39,3.89,3.5,0,4.15-3.5,2.66-3.85-4.72-1.11-7.41-5.22-8.93-7.73A3,3,0,0,0,148.64,403.46Z" style="fill:#263238"></path><polygon points="153.61 386.02 150.74 395.86 142.51 393.72 145.38 383.88 153.61 386.02" style="opacity:0.2"></polygon><path d="M159.55,301.76c4.92-32.07,2.82-63.29,9.72-81.54l30.19-.49s-13.1,58.47-19,84c-6.12,26.59-25.56,88.28-25.56,88.28l-13.32-3.49S151.72,324.89,159.55,301.76Z" style="fill:#FF4040"></path><path d="M181.35,274.61c0,6.34.47,13.2,1.11,20.52,3.89-17.11,9.34-41.31,13-57.65C184.38,245.76,181.35,258.49,181.35,274.61Z" style="opacity:0.2"></path><path d="M198.22,117.17a6.76,6.76,0,0,0,3.26,4.06c2.11,1.14,3.71-.62,3.57-2.89-.12-2-1.36-5.07-3.7-5.27A3.09,3.09,0,0,0,198.22,117.17Z" style="fill:#ff8b7b"></path><path d="M206.2,114.83c2.62.47,3,3.15,3,4.33s-2.36,10.14-7.16,11.84-4.8.55-4.09-.67S205.12,123.05,206.2,114.83Z" style="fill:#FF4040"></path><path d="M190.86,302c-4.11-33.59-9.65-64.25-5.36-82.09l29.43-.47s-1.71,59.82-3.13,85.8c-1.48,27-3.55,90.45-3.55,90.45l-14.46.22S188.86,335.94,190.86,302Z" style="fill:#FF4040"></path><polygon points="209.15 396.04 191.96 396.31 190.99 390.74 210.15 390.14 209.15 396.04" style="fill:#263238"></polygon><polygon points="155.98 395.3 139.35 390.97 139.9 385.34 158.53 389.89 155.98 395.3" style="fill:#263238"></polygon></g><g id="freepik--character-2--inject-2"><path d="M347.66,115.08c-10.51,8.49-13.18,22.2-9.4,28.41,5.38,8.83,27,11.17,37.25,5.86,4.77-2.48,9.08-30.54-4.76-35.9C365.52,105.9,353.6,110.27,347.66,115.08Z" style="fill:#263238"></path><polygon points="385.35 384.1 377.72 389.53 356.32 369.18 365.54 359.2 385.35 384.1" style="fill:#ffc3bd"></polygon><path d="M376.61,387.59l7.73-7.15a.72.72,0,0,1,1-.07l6.07,4.92a1.45,1.45,0,0,1-.07,2.16c-2.73,2.45-4.16,3.5-7.56,6.65-2.09,1.93-6.23,6.13-9.12,8.8s-5.46.14-4.48-1.21c4.41-6.08,5.17-9.54,5.69-12.64A2.63,2.63,0,0,1,376.61,387.59Z" style="fill:#263238"></path><path d="M375.05,391.1a3.7,3.7,0,0,1-2,1.15,1.07,1.07,0,0,1-1-.47.7.7,0,0,1-.1-.67c.45-1.21,4.39-2.43,4.83-2.57a.22.22,0,0,1,.23.08.23.23,0,0,1,0,.25A17.29,17.29,0,0,1,375.05,391.1Zm-2.43-.2a.93.93,0,0,0-.26.34.25.25,0,0,0,.05.26.69.69,0,0,0,.63.32c.73,0,1.92-1,3.23-2.67A12.67,12.67,0,0,0,372.62,390.9Z" style="fill:#FF4040"></path><path d="M377,388.9l-.08.05c-1.14.41-4,.52-4.55-.33-.13-.2-.19-.53.22-1a1.71,1.71,0,0,1,1.14-.58c1.48-.12,3.21,1.47,3.28,1.54a.21.21,0,0,1,.06.2A.41.41,0,0,1,377,388.9Zm-4-1.1-.09.1c-.27.3-.19.43-.17.47.33.51,2.42.59,3.68.29a4.58,4.58,0,0,0-2.68-1.18A1.25,1.25,0,0,0,373,387.8Z" style="fill:#FF4040"></path><polygon points="367.95 408.51 358.91 408.82 357.17 377.24 369.73 377.42 367.95 408.51" style="fill:#ffc3bd"></polygon><path d="M358.29,405.94l10.15-.07a.65.65,0,0,1,.68.61l.61,8a1.59,1.59,0,0,1-1.56,1.62c-3.53,0-5.22-.23-9.68-.2-2.75,0-6.78.33-10.57.36s-3.74-3.72-2.14-4.07c7.18-1.57,8.44-3.68,11-5.7A2.54,2.54,0,0,1,358.29,405.94Z" style="fill:#263238"></path><path d="M342.72,169c-.54,2.13-1.14,4.17-1.75,6.24s-1.24,4.12-1.93,6.17c-1.37,4.1-2.83,8.17-4.66,12.28-.47,1-.95,2.06-1.5,3.12a27.65,27.65,0,0,1-2,3.32,10.74,10.74,0,0,1-2,2.15,6.11,6.11,0,0,1-2.79,1.17,7.79,7.79,0,0,1-1.76.06A11.83,11.83,0,0,1,322,203a17.91,17.91,0,0,1-1.84-.64,40.39,40.39,0,0,1-6.11-3.22,53.94,53.94,0,0,1-5.39-3.91,2.56,2.56,0,0,1,2.4-4.41l.08,0,5.92,1.89a57.39,57.39,0,0,0,5.65,1.57,8.81,8.81,0,0,0,1.22.2,2.39,2.39,0,0,0,.78,0s0,0-.17,0a2.7,2.7,0,0,0-1.34.58l-.11.09s0,0,0,0h0s0,0,0,0,.1-.14.19-.31a16.71,16.71,0,0,0,1.11-2.21c.38-.84.75-1.74,1.11-2.67,1.41-3.72,2.67-7.68,3.89-11.65l1.81-6,1.75-6v0a5.09,5.09,0,0,1,9.82,2.67Z" style="fill:#FF4040"></path><path d="M304.34,183.21,301,182.4a1.79,1.79,0,0,0-2.16,1.36l-1,4.46a1.79,1.79,0,0,0,1,2l5.19,2.52a8,8,0,0,0,4.61,2.74,2.51,2.51,0,0,0,2.59-1.69l.38-1.05a2.6,2.6,0,0,0-.33-2.37l-3.5-4.86A5.94,5.94,0,0,0,304.34,183.21Z" style="fill:#263238"></path><path d="M307.87,190.37c-.37-1.39.54-6.27,1.57-7.16s.95,2.12,1.16,3.28c.52,2.83,1.69,5,.75,6.89C310.69,194.69,308.5,192.79,307.87,190.37Z" style="fill:#263238"></path><path d="M332.13,169.81c-.45,7.94-.47,21,.7,42.61l36.4,1.19c.89-13.56,1.76-22.41,9.57-46.53a7.69,7.69,0,0,0-6.07-10c-2-.32-4.21-.61-6.45-.79a114.25,114.25,0,0,0-16.53-.54c-1.5.09-3.05.22-4.56.37A14.55,14.55,0,0,0,332.13,169.81Z" style="fill:#FF4040"></path><path d="M349.75,155.78s-5.18.84-1.09,11.9a56.68,56.68,0,0,0,17.62-11.36Z" style="fill:#fff"></path><ellipse cx="358.71" cy="176.72" rx="5.01" ry="4.46" transform="translate(117.41 495.6) rotate(-79.11)" style="fill:#fff"></ellipse><path d="M371.59,171c-.46,5.51-.83,14.95.31,20.87.82-3.94,1.92-8.35,3.45-13.64Z" style="opacity:0.2"></path><path d="M366.64,137.45c-1.61,5.34-3.7,15.16-.36,18.87,0,0-5.55,4.59-16.8,9.31-4.27-8.62.27-9.85.27-9.85,6.09-1.24,6.41-5.69,5.82-9.9Z" style="fill:#ffc3bd"></path><path d="M363.58,141.6l-8,4.27a17.82,17.82,0,0,1,.2,3c1.72,0,6.09-1.49,7.62-4.35A4.25,4.25,0,0,0,363.58,141.6Z" style="opacity:0.2"></path><path d="M372.38,126.3c-1,8.91-1.19,12.7-5.92,17.07-7.11,6.57-17.84,3.43-19.55-5.58-1.54-8.12.31-21.32,9.22-24.46A12.22,12.22,0,0,1,372.38,126.3Z" style="fill:#ffc3bd"></path><path d="M360.15,114.21c-6.14,3.54,7.07,17.27,10.41,17.09,5.67-3.34,5.76-10.19,2.6-13.46S367.7,109.88,360.15,114.21Z" style="fill:#263238"></path><path d="M365.88,139.69a.57.57,0,0,1-.1-1.13c4-.69,6.48-2,7.06-3.63a3.53,3.53,0,0,0-1.06-3.35,1.94,1.94,0,0,0-1.41-.69c-2.38-.16-5.75,2.86-7,4l-.26.23a.57.57,0,0,1-.8-.06.56.56,0,0,1,.06-.79l.25-.23c1.5-1.33,5-4.47,7.85-4.28a3.06,3.06,0,0,1,2.19,1.07c1.31,1.49,1.76,3.08,1.27,4.48-.74,2.1-3.4,3.57-7.92,4.37Z" style="fill:#FF4040"></path><path d="M366.79,113.53c4.36,2-15.67,2.1-19.8,7.37C350.43,115.66,355.55,108.3,366.79,113.53Z" style="fill:#263238"></path><path d="M332.83,212.42s-18.77,79.86-17.1,100.33c2,23.93,40.54,58.28,40.54,58.28l11-12S344,332.74,335.12,312.16C338,291.59,363.76,233,362.67,213.4Z" style="fill:#FF4040"></path><path d="M332.83,212.42s-18.77,79.86-17.1,100.33c2,23.93,40.54,58.28,40.54,58.28l11-12S344,332.74,335.12,312.16C338,291.59,363.76,233,362.67,213.4Z" style="fill:#fff;opacity:0.4"></path><polygon points="369.59 360.48 356.42 372.33 352.54 369.9 366.93 356.23 369.59 360.48" style="fill:#FF4040"></polygon><path d="M347.37,246.87c-10.55,14.61-11.06,41.48-10.4,56.57,3.62-13.87,11.37-34.18,17.41-52.83C354.24,243.44,352.3,240,347.37,246.87Z" style="fill:#FF4040;opacity:0.30000000000000004"></path><path d="M339.63,212.11s7.38,69.18,9.73,92.82C352.14,333,356.22,378,356.22,378l13.51-.56s3-38.15.76-63.29c.4-33.36,6.23-79.91-1.26-100.52Z" style="fill:#FF4040"></path><path d="M339.63,212.11s7.38,69.18,9.73,92.82C352.14,333,356.22,378,356.22,378l13.51-.56s3-38.15.76-63.29c.4-33.36,6.23-79.91-1.26-100.52Z" style="fill:#fff;opacity:0.4"></path><polygon points="370.75 379.89 355.26 379.45 354.18 374.58 371.7 374.09 370.75 379.89" style="fill:#FF4040"></polygon><path d="M357.81,128.35c0,.73-.45,1.3-.92,1.28s-.84-.63-.8-1.36.45-1.3.92-1.27S357.84,127.63,357.81,128.35Z" style="fill:#263238"></path><path d="M349.59,128c0,.72-.45,1.29-.92,1.27s-.84-.63-.8-1.36.45-1.29.92-1.27S349.62,127.24,349.59,128Z" style="fill:#263238"></path><path d="M349,126.66l-1.72-.59S348.11,127.48,349,126.66Z" style="fill:#263238"></path><path d="M352.06,129.19a19.48,19.48,0,0,1-2.81,4.52,3.14,3.14,0,0,0,2.57.61Z" style="fill:#ed847e"></path><path d="M356,137.19a6.1,6.1,0,0,1-1.22,0,.21.21,0,1,1,0-.42,5.77,5.77,0,0,0,4.8-2,.21.21,0,0,1,.3-.05.22.22,0,0,1,0,.3A6,6,0,0,1,356,137.19Z" style="fill:#263238"></path><path d="M374,134.44a6.55,6.55,0,0,1-4.1,2.87c-2.24.48-3.22-1.56-2.48-3.61.66-1.84,2.63-4.31,4.83-3.87A2.94,2.94,0,0,1,374,134.44Z" style="fill:#ffc3bd"></path><path d="M360.16,125.8a.45.45,0,0,1-.22-.25,3.39,3.39,0,0,0-2.06-2.3.43.43,0,0,1-.29-.53.42.42,0,0,1,.53-.29,4.22,4.22,0,0,1,2.64,2.87.42.42,0,0,1-.29.53A.37.37,0,0,1,360.16,125.8Z" style="fill:#263238"></path><path d="M346.76,124.2a.45.45,0,0,1-.31-.08.43.43,0,0,1-.09-.6,4.28,4.28,0,0,1,3.46-1.81.42.42,0,0,1,.4.45.43.43,0,0,1-.45.41,3.35,3.35,0,0,0-2.72,1.46A.44.44,0,0,1,346.76,124.2Z" style="fill:#263238"></path><path d="M353.32,407a1.15,1.15,0,0,1-.19-1,.79.79,0,0,1,.46-.61c1.09-.48,3.71,1.27,4,1.47a.2.2,0,0,1,.08.21.24.24,0,0,1-.17.18c-1.19.28-3.3.65-4.1-.12A.39.39,0,0,1,353.32,407Zm3.59-.08c-1.07-.67-2.6-1.42-3.17-1.17a.31.31,0,0,0-.19.27.76.76,0,0,0,.16.76C354.14,407.17,355.32,407.22,356.91,406.9Z" style="fill:#FF4040"></path><path d="M356.28,406.18a3.45,3.45,0,0,1-1-2.44.81.81,0,0,1,.76-.6,1,1,0,0,1,.89.28c.91.86.76,3.46.75,3.57a.25.25,0,0,1-.12.18.22.22,0,0,1-.21,0A4.54,4.54,0,0,1,356.28,406.18Zm.43-2.34-.09-.1a.64.64,0,0,0-.56-.18c-.27,0-.34.16-.37.26-.16.62.76,2.08,1.58,2.76A5.21,5.21,0,0,0,356.71,403.84Z" style="fill:#FF4040"></path><path d="M370,211.47l.58,3.32c.1.26-.23.51-.65.5l-37.46-1.22c-.33,0-.58-.19-.58-.39l0-3.31c0-.23.3-.41.66-.4l36.87,1.2A.61.61,0,0,1,370,211.47Z" style="fill:#fff"></path><path d="M364.62,215.47l1,0c.2,0,.36-.1.36-.22V211c0-.12-.16-.23-.36-.24l-1,0c-.2,0-.36.09-.36.22v4.29C364.26,215.36,364.42,215.47,364.62,215.47Z" style="fill:#FF4040"></path><path d="M364.62,215.47l1,0c.2,0,.36-.1.36-.22V211c0-.12-.16-.23-.36-.24l-1,0c-.2,0-.36.09-.36.22v4.29C364.26,215.36,364.42,215.47,364.62,215.47Z" style="fill:#fff;opacity:0.4"></path><path d="M335.22,214.51l1,0c.2,0,.36-.1.36-.22V210c0-.13-.16-.24-.36-.24l-1,0c-.2,0-.36.09-.36.22v4.29C334.86,214.4,335,214.51,335.22,214.51Z" style="fill:#FF4040"></path><path d="M335.22,214.51l1,0c.2,0,.36-.1.36-.22V210c0-.13-.16-.24-.36-.24l-1,0c-.2,0-.36.09-.36.22v4.29C334.86,214.4,335,214.51,335.22,214.51Z" style="fill:#fff;opacity:0.4"></path><path d="M349.92,215l1,0c.2,0,.36-.1.36-.22v-4.29c0-.13-.16-.24-.36-.24l-1,0c-.2,0-.36.09-.36.22v4.29C349.56,214.88,349.72,215,349.92,215Z" style="fill:#FF4040"></path><path d="M349.92,215l1,0c.2,0,.36-.1.36-.22v-4.29c0-.13-.16-.24-.36-.24l-1,0c-.2,0-.36.09-.36.22v4.29C349.56,214.88,349.72,215,349.92,215Z" style="fill:#fff;opacity:0.4"></path><path d="M378.88,162.63c1.37,5.83,2.46,11.57,3.31,17.47.42,3,.82,5.91,1.06,8.93a68.77,68.77,0,0,1,.24,9.38c-.06.84-.14,1.69-.28,2.6-.06.45-.17.94-.26,1.41l-.21.79a7.71,7.71,0,0,1-.34,1,6.94,6.94,0,0,1-1.74,2.5,8.17,8.17,0,0,1-2.08,1.37,11,11,0,0,1-3.42.89,23.5,23.5,0,0,1-5.3-.13,44.91,44.91,0,0,1-4.67-.86,92.46,92.46,0,0,1-17-6,2.53,2.53,0,0,1,1.57-4.78l.08,0c5.55,1.18,11.25,2.31,16.7,2.92,1.35.15,2.7.24,4,.27a15.7,15.7,0,0,0,3.39-.22,1.94,1.94,0,0,0,.76-.28s-.1,0-.27.16a1.92,1.92,0,0,0-.53.71c-.09.25,0,0,0,0l0-.27.09-.73c0-.54.06-1.13.07-1.75a69.39,69.39,0,0,0-.61-8c-.36-2.77-.75-5.56-1.24-8.36-1-5.58-2.09-11.26-3.25-16.78v-.06a5.09,5.09,0,0,1,9.93-2.21Z" style="fill:#FF4040"></path><path d="M342.49,190.13l-3.05-.52a1.79,1.79,0,0,0-2.06,1.5l-.67,4.52a1.78,1.78,0,0,0,1.1,1.91l5.35,2.16s4.4,3.44,7.89,1.81l0-3.73-4.38-5.26A7,7,0,0,0,342.49,190.13Z" style="fill:#263238"></path><path d="M357.22,127.05l-1.72-.59S356.33,127.87,357.22,127.05Z" style="fill:#263238"></path><path d="M364.45,134.81l1.67,3.51a1.29,1.29,0,0,1,.13.75c-.2,1.9,3.06,9.25-14.85,8.43-5.26-.25-5.89-10.29-5.35-13.45a1.33,1.33,0,0,1,1-1.1l3.86-.84a1.55,1.55,0,0,1,.48,0l12.06,2A1.31,1.31,0,0,1,364.45,134.81Z" style="fill:#FF4040"></path></g></svg>